<svg width="106" height="36" viewBox="0 0 106 36" fill="none" xmlns="http://www.w3.org/2000/svg">
<g id="Logo">
<path id="Vector" d="M22.1937 8.7323C21.8996 8.70987 21.5886 8.64704 21.314 8.71705C20.971 8.805 20.6582 9.00874 20.3446 9.15594C20.3156 8.82625 20.1177 8.68593 19.751 8.735C19.6977 8.74218 19.6444 8.77 19.5929 8.76641C19.3343 8.74397 19.313 8.89296 19.3148 9.10388C19.3219 10.3972 19.3183 11.6905 19.3183 12.983C19.3183 13.6849 19.3183 13.6768 20.0274 13.6759C20.2628 13.6759 20.3401 13.5987 20.3366 13.3599C20.325 12.4947 20.3321 11.6295 20.3321 10.7643C20.3321 10.163 20.7693 9.70163 21.37 9.69625C21.6197 9.69355 21.8685 9.74112 22.1848 9.77254C22.2345 9.48533 22.2932 9.18645 22.3296 8.88399C22.3358 8.83731 22.2452 8.73589 22.1937 8.7323ZM18.1623 10.1953C18.1516 9.40276 17.7722 8.88129 17.1102 8.73948C16.1239 8.52677 15.2203 8.7691 14.3877 9.31121C14.3326 9.34711 14.2864 9.49071 14.3131 9.54546C14.4126 9.74561 14.5441 9.92871 14.6729 10.1333C14.8311 10.0463 14.9626 9.97179 15.0959 9.90088C15.4922 9.69086 15.9063 9.57239 16.3603 9.5688C16.9281 9.56341 17.136 9.88562 17.144 10.4421C17.144 10.5094 17.04 10.6243 16.9699 10.6378C16.6882 10.6916 16.3985 10.7015 16.1159 10.749C15.5251 10.8496 14.9573 11.0129 14.4943 11.4312C14.0803 11.8054 13.9932 12.2892 14.0892 12.8008C14.1789 13.2783 14.505 13.596 14.9679 13.701C15.2763 13.7719 15.6157 13.7988 15.9249 13.7459C16.3505 13.6732 16.7602 13.5062 17.184 13.3779C17.1511 13.6849 17.3741 13.6893 17.6167 13.6723C17.7153 13.666 17.8149 13.666 17.9135 13.6723C18.0965 13.6822 18.1703 13.6077 18.1694 13.4165C18.1632 12.3431 18.1765 11.2687 18.1623 10.1953ZM16.6402 12.72C16.3372 12.816 16.0111 12.8466 15.693 12.8816C15.4504 12.9085 15.2381 12.8214 15.1599 12.5647C15.0808 12.3063 15.1385 12.0388 15.3731 11.9185C15.7197 11.7417 16.1008 11.6331 16.4678 11.4976C16.4998 11.4859 16.5389 11.4931 16.5744 11.4877C16.9601 11.4279 17.1529 11.5975 17.1529 11.9966C17.152 12.5351 17.1591 12.5558 16.6402 12.72ZM4.7922 10.2482C4.34792 9.92601 3.80946 9.73394 3.30742 9.497C2.88447 9.29685 2.42509 9.16222 2.03146 8.91899C1.43702 8.5519 1.52409 7.74951 2.16119 7.45961C2.63212 7.2451 3.12971 7.24959 3.6122 7.38243C4.03249 7.49731 4.435 7.67771 4.88194 7.84286C5.01967 7.62565 5.17606 7.37794 5.35377 7.09791C5.14051 6.97764 4.96902 6.86096 4.78332 6.77749C3.75526 6.31886 2.70321 6.19679 1.64316 6.64197C0.984741 6.9184 0.587557 7.4264 0.541352 8.16237C0.492481 8.92437 0.807918 9.50687 1.46989 9.87575C1.76045 10.0373 2.07233 10.1603 2.378 10.2922C2.86581 10.5022 3.36607 10.6853 3.84234 10.9178C4.22353 11.1045 4.36303 11.4581 4.32038 11.8763C4.28039 12.2721 4.07336 12.5513 3.70194 12.6976C3.2239 12.8843 2.72009 12.8959 2.24027 12.781C1.73202 12.659 1.24864 12.4382 0.706623 12.2434C0.584891 12.4292 0.424062 12.6751 0.265899 12.9157C0.297887 12.9597 0.310327 12.9848 0.328987 13.0027C0.361863 13.0341 0.396517 13.0638 0.433836 13.088C1.64671 13.8617 2.93512 14.0151 4.27862 13.5179C5.69497 12.9938 5.81671 10.9923 4.7922 10.2482ZM11.085 29.9265C11.0201 28.7417 10.622 27.7168 9.79566 26.865C8.89644 25.9388 7.7733 25.3859 6.60485 24.9111C5.71896 24.5512 4.82774 24.2057 4.03693 23.6474C3.29321 23.1205 2.83116 22.4223 2.79917 21.4897C2.75385 20.1731 3.54289 19.1292 4.85262 18.7675C6.00686 18.4489 7.15665 18.5575 8.286 18.895C8.76493 19.0377 9.22343 19.2495 9.72102 19.4416C9.90139 18.8986 10.0827 18.3583 10.2613 17.8171C10.3874 17.4347 10.3892 17.4284 10.0187 17.2561C9.18433 16.8675 8.30466 16.6682 7.39034 16.5839C6.0655 16.4618 4.7611 16.5103 3.51357 17.029C1.6947 17.7856 0.545794 19.1041 0.338761 21.1191C0.169935 22.7687 0.765268 24.1329 2.0359 25.1884C2.91735 25.9208 3.93386 26.4028 4.99568 26.8013C5.85936 27.1253 6.69549 27.5005 7.44187 28.0632C8.83157 29.1115 8.87689 31.0421 8.13495 32.1497C7.4943 33.1046 6.52755 33.478 5.45506 33.5776C3.96051 33.7149 2.53527 33.4044 1.19 32.7312C0.990072 32.6316 0.792813 32.5257 0.559123 32.4045C0.406291 32.9045 0.256125 33.3766 0.116622 33.8523C-0.0824143 34.5308 -0.0850799 34.5451 0.580448 34.8315C2.56459 35.6859 4.6216 35.9058 6.73103 35.4588C8.16072 35.1564 9.38692 34.4805 10.2373 33.233C10.9161 32.2376 11.1507 31.1265 11.085 29.9265ZM13.3383 10.6503C13.3365 10.3604 13.3206 10.0696 13.2939 9.78061C13.2459 9.25556 12.9296 8.8436 12.4391 8.74307C12.1281 8.68025 11.7878 8.65422 11.4786 8.71166C11.0156 8.79782 10.5678 8.97194 10.0987 9.11285C9.25097 8.31944 8.33132 8.70987 7.41788 9.06708C7.39833 8.92886 7.38234 8.81757 7.36368 8.69012C7.11133 8.72153 6.8883 8.77269 6.66705 8.7691C6.41115 8.76551 6.37561 8.88578 6.37738 9.10478C6.38449 10.3891 6.38094 11.6735 6.38094 12.9579C6.38094 13.6857 6.38094 13.6768 7.09534 13.6759C7.33258 13.6759 7.40455 13.5987 7.40189 13.3608C7.39034 12.2946 7.40367 11.2292 7.39123 10.1639C7.38856 9.94037 7.46053 9.81562 7.66846 9.77433C8.01943 9.70612 8.36952 9.61906 8.72406 9.59034C9.04394 9.56431 9.25364 9.76536 9.29807 10.084C9.33094 10.3173 9.35227 10.5543 9.35404 10.7894C9.36115 11.5182 9.35671 12.247 9.35671 12.9758C9.35671 13.7046 9.35671 13.6768 10.0578 13.6759C10.2986 13.6759 10.3688 13.5879 10.367 13.3546C10.3572 12.4534 10.351 11.5514 10.3706 10.6503C10.3759 10.3846 10.2168 10.0472 10.4434 9.86588C10.646 9.70253 10.957 9.66394 11.228 9.6056C11.4102 9.567 11.6065 9.57149 11.7931 9.59124C12.0926 9.62355 12.2783 9.86678 12.2827 10.2446C12.2943 11.1458 12.2854 12.0478 12.2943 12.9489C12.3032 13.7881 12.1601 13.6534 13.0344 13.675C13.2752 13.6813 13.3472 13.5897 13.3445 13.3555C13.3348 12.4543 13.3445 11.5523 13.3383 10.6503ZM23.5905 33.0723C23.5683 31.1606 23.6003 29.2488 23.5709 27.3371C23.5594 26.6344 23.5025 25.9181 23.3515 25.2342C22.9605 23.4661 21.9076 22.3011 20.1198 21.8864C19.0411 21.636 17.9561 21.6737 16.8766 21.8649C16.0031 22.0202 15.1741 22.3137 14.3966 22.7552C14.2136 22.8594 14.1638 22.9644 14.2411 23.1672C14.3939 23.5648 14.5228 23.9714 14.6641 24.3735C14.6863 24.4363 14.7262 24.492 14.7627 24.5593C14.8258 24.527 14.8666 24.509 14.9049 24.4866C16.1293 23.7883 17.431 23.4428 18.8412 23.6294C19.8061 23.7578 20.5525 24.2308 20.8742 25.1893C21.0243 25.6354 21.0368 26.129 21.1079 26.602C21.1327 26.7681 21.0492 26.8183 20.8893 26.8255C20.3775 26.8489 19.8665 26.8821 19.3556 26.9207C18.228 27.0059 17.1316 27.2312 16.0866 27.68C14.3504 28.4249 12.9856 29.8987 13.261 32.3453C13.3952 33.5372 13.9825 34.4671 15.0017 35.0908C15.8121 35.5863 16.706 35.7182 17.646 35.6581C18.7834 35.5863 19.7839 35.1941 20.6458 34.4455C20.8822 34.24 21.1043 34.0192 21.3504 33.7885C21.3949 34.1987 21.4526 34.6161 21.4828 35.0361C21.4997 35.2748 21.5566 35.4077 21.832 35.3834C22.1101 35.3592 22.3909 35.3781 22.6708 35.3781H23.7442C23.6882 34.573 23.5994 33.8235 23.5905 33.0723ZM21.1087 31.2773C20.8502 32.6002 19.7804 33.5668 18.4537 33.7607C17.6798 33.8738 16.9592 33.7912 16.3532 33.2464C15.4113 32.4001 15.4024 30.4111 16.7104 29.5208C17.4168 29.0397 18.2121 28.8198 19.0384 28.7193C19.6524 28.6439 20.2762 28.6448 20.8946 28.599C21.1185 28.582 21.1745 28.6717 21.1665 28.8809C21.1532 29.2354 21.1629 29.5908 21.1629 29.9462C21.1701 29.9462 21.1772 29.9462 21.1843 29.9471C21.1621 30.3914 21.1932 30.8455 21.1087 31.2773ZM26.09 12.9866C26.0598 12.9121 26.0269 12.8394 25.9816 12.7344C25.8359 12.7828 25.7186 12.8277 25.5986 12.86C24.9073 13.0431 24.559 12.7739 24.5581 12.0558C24.5572 11.3279 24.5626 10.6001 24.5555 9.87216C24.5537 9.69625 24.6079 9.62803 24.7874 9.63342C25.1383 9.64329 25.4902 9.6415 25.8412 9.62983C25.9158 9.62803 26.0429 9.57418 26.0536 9.52482C26.1006 9.29864 26.1149 9.06529 26.1397 8.8418C26.0784 8.81577 26.0544 8.79693 26.0296 8.79693C25.6333 8.79244 25.2361 8.77898 24.8407 8.79334C24.6105 8.80141 24.5421 8.71615 24.5546 8.49356C24.5706 8.19738 24.5581 7.9003 24.5581 7.56552C24.2294 7.61578 23.9459 7.64899 23.6687 7.71092C23.6145 7.72259 23.554 7.84106 23.5487 7.91466C23.5318 8.13186 23.5345 8.35086 23.5443 8.56895C23.5523 8.73859 23.4803 8.79603 23.3212 8.78975C23.1409 8.78257 22.9569 8.7709 22.7819 8.79962C22.7064 8.81218 22.5997 8.91719 22.5891 8.99169C22.502 9.59752 22.5411 9.63521 23.1489 9.63611C23.1844 9.63611 23.2217 9.6406 23.2564 9.63611C23.4812 9.6029 23.5496 9.69804 23.5469 9.92512C23.5354 10.7347 23.5292 11.5451 23.5496 12.3547C23.5647 12.9471 23.7886 13.4398 24.3769 13.6732C24.83 13.8527 25.293 13.8204 25.7514 13.6813C26.1199 13.5694 26.2327 13.3381 26.09 12.9875V12.9866ZM44.2601 26.1649C43.9739 24.903 43.4435 23.7712 42.451 22.9159C41.1581 21.8021 39.6218 21.5588 38.0073 21.8093C35.8099 22.1494 34.3233 23.4517 33.4552 25.4855C32.859 26.883 32.7017 28.3504 32.8448 29.8619C32.9443 30.9102 33.2091 31.9019 33.7538 32.8013C35.0697 34.9778 37.1223 35.6877 39.5081 35.6832C40.0812 35.6823 40.6641 35.6419 41.2239 35.5297C41.9969 35.3745 42.754 35.1393 43.5137 34.9239C43.5901 34.9024 43.7012 34.7686 43.6887 34.7103C43.5741 34.1628 43.4346 33.6198 43.2933 33.0346C43.1511 33.0849 43.0507 33.1181 42.9512 33.1567C41.5873 33.688 40.17 33.8442 38.7332 33.6395C36.3626 33.3021 35.3247 31.5779 35.1719 29.5585C35.1444 29.2049 35.1586 29.2031 35.5193 29.2031C38.3698 29.2031 41.2203 29.1995 44.0699 29.2094C44.3374 29.2103 44.4004 29.107 44.4289 28.8674C44.5355 27.9546 44.4626 27.0553 44.2601 26.1649ZM41.7001 27.3685C41.0204 27.3694 40.3406 27.3694 39.6618 27.3694C39.3215 27.3685 38.982 27.3685 38.6426 27.3685H37.0601C36.5332 27.3685 36.0054 27.3685 35.4776 27.3703C35.3087 27.3712 35.1843 27.347 35.2252 27.1343C35.45 25.9585 35.9059 24.9075 36.8859 24.1689C38.1628 23.2076 40.0847 23.3683 41.1332 24.5126C41.6388 25.0655 41.8761 25.7476 42.0014 26.4755C42.0307 26.6451 42.0502 26.8174 42.0555 26.9889C42.068 27.3676 42.0635 27.3685 41.7001 27.3685ZM59.9653 0.689575V0.358388C59.8302 0.393392 59.736 0.41583 59.6436 0.443653C59.0572 0.618671 58.4752 0.809843 57.8834 0.96332C57.5893 1.03961 57.4889 1.16885 57.4898 1.48568C57.5004 5.72021 57.4978 9.95563 57.4969 14.1902C57.4969 14.7278 57.4995 15.2654 57.4853 15.8021C57.4587 16.8082 56.8829 17.5909 55.9721 17.8233C55.6353 17.9095 55.279 17.949 54.9307 17.9508C52.8737 17.9625 50.8167 17.9616 48.7597 17.9544C47.8951 17.9517 47.0306 17.931 46.166 17.9041C45.1255 17.8718 44.2965 17.2983 43.9713 16.3029C43.8024 15.7851 43.7367 15.2259 43.6754 14.6793C43.5928 13.9406 43.6061 13.1894 43.4915 12.4579C43.3315 11.4303 42.9032 10.5112 42.1435 9.78061C41.2718 8.94322 40.1949 8.62999 39.0274 8.61922C36.9437 8.59947 34.8591 8.59498 32.7755 8.6237C32.0611 8.63358 31.3369 8.70628 30.6358 8.84719C29.072 9.15953 27.9977 10.0741 27.589 11.6627C27.4415 12.2371 27.3553 12.8421 27.3428 13.4344C27.31 15.0733 27.3313 16.7131 27.3313 18.3529C27.3331 24.0082 27.334 29.6635 27.3349 35.3188C27.3349 35.5683 27.4607 35.6937 27.7125 35.6949C28.2989 35.6958 28.8854 35.685 29.4718 35.6994C29.7215 35.7057 29.8157 35.6392 29.8148 35.3655C29.8068 28.9177 29.805 22.4698 29.8086 16.022C29.8095 14.9854 29.8059 13.9469 29.8726 12.9139C29.9401 11.8593 30.4892 11.2777 31.5137 11.0641C32.508 10.8567 33.5174 10.8918 34.5748 10.9025C34.1741 11.7229 33.9981 12.5477 33.9235 13.4066C33.8293 14.498 33.8933 15.5697 34.2212 16.6126C34.677 18.0621 35.5584 19.1176 37.053 19.5502C37.802 19.7674 38.5671 19.8203 39.3481 19.7548C40.5868 19.6498 41.653 19.2118 42.4696 18.2353C42.5176 18.1779 42.5718 18.1249 42.6349 18.0567C42.6935 18.1545 42.7353 18.2245 42.7762 18.2945C43.2853 19.1607 44.0273 19.7279 44.9913 19.9577C45.5031 20.0806 46.0381 20.1614 46.5632 20.1659C49.3506 20.1856 52.1389 20.1793 54.9263 20.1704C55.3652 20.1704 55.8077 20.1345 56.2422 20.0734C58.413 19.7692 59.9617 17.9777 59.9635 15.7716C59.9679 10.7446 59.9653 5.71751 59.9653 0.689575ZM40.9333 16.1055C40.4908 17.3468 39.4725 17.6977 38.3707 17.5514C37.2218 17.3988 36.7002 16.6054 36.487 15.5544C36.2799 14.5357 36.2986 13.5116 36.5856 12.51C36.8388 11.6259 37.3675 10.9815 38.3201 10.8469C40.0385 10.6045 40.8107 11.5496 41.0737 12.8511C41.1652 13.3016 41.183 13.7674 41.2345 14.2261C41.2105 14.8696 41.1501 15.4979 40.9333 16.1055ZM66.1718 27.4323C66.1612 26.7062 66.0332 25.9648 65.844 25.262C65.485 23.9292 64.7377 22.8486 63.4155 22.3433C61.5851 21.645 59.9057 21.9807 58.4654 23.3306C58.0682 23.703 57.7563 24.168 57.4133 24.5808C56.6989 22.9267 55.4443 22.0049 53.605 22.0121C51.8172 22.0193 50.4675 22.8531 49.5247 24.4507C49.4821 23.7021 49.4448 23.0335 49.4057 22.3478H47.2643C47.2643 22.5883 47.2589 22.8136 47.2652 23.038C47.2954 24.238 47.3505 25.4371 47.3567 26.6361C47.37 29.5325 47.3611 32.4288 47.3611 35.3251C47.3611 35.5704 47.4858 35.6937 47.7352 35.6949C48.295 35.6958 48.8539 35.6958 49.4137 35.6949C49.6589 35.6943 49.7818 35.5662 49.7824 35.3107C49.7824 32.7151 49.7709 30.1194 49.7878 27.5247C49.7966 26.2188 50.376 25.192 51.4591 24.4875C52.8008 23.6142 54.4651 24.1123 55.1564 25.5609C55.5012 26.2834 55.5794 27.0625 55.5838 27.8433C55.5989 30.3573 55.5927 32.8713 55.5847 35.3843C55.5838 35.6222 55.6496 35.7057 55.8886 35.6994C56.4386 35.685 56.9886 35.6949 57.5395 35.6949C57.8487 35.6949 58.0033 35.5429 58.0033 35.2389C58.0033 32.6164 58.0051 29.9929 58.0033 27.3703C58.0025 26.2924 58.4139 25.4038 59.2278 24.7181C60.5455 23.607 62.7393 23.8718 63.4226 25.8481C63.6474 26.4979 63.7594 27.1684 63.7621 27.8514C63.7718 30.3555 63.7683 32.8605 63.7612 35.3646C63.7603 35.6078 63.8189 35.7065 64.0757 35.6994C64.6799 35.6841 65.2851 35.6859 65.8893 35.6994C66.1283 35.7039 66.1949 35.6195 66.194 35.3825C66.1861 32.7321 66.21 30.0818 66.1718 27.4323ZM71.8746 34.8943C71.8675 34.4087 71.9386 34.4653 71.4392 34.4626C70.7479 34.4599 70.7426 34.4617 70.7497 35.1555C70.755 35.7371 70.6395 35.6922 71.2784 35.6949C71.8755 35.6967 71.8755 35.6949 71.8755 35.0855C71.8755 35.0217 71.8764 34.958 71.8746 34.8943ZM73.498 35.1106V35.0558C73.498 34.6597 73.306 34.4617 72.9222 34.4617C72.3304 34.4617 72.3278 34.4626 72.3313 35.0774C72.3349 35.7712 72.2531 35.6931 72.9293 35.694C73.6073 35.6949 73.4846 35.7496 73.498 35.1106ZM86.047 30.9918C85.9955 30.2469 85.9218 29.5082 85.6125 28.8162C85.2411 27.9833 84.6582 27.3901 83.7537 27.1729C83.5307 27.119 83.3005 27.0939 83.0508 27.0517C83.1086 26.9835 83.1495 26.9261 83.1983 26.8776C83.5653 26.5141 83.9385 26.1569 84.2966 25.7853C84.3579 25.7216 84.4103 25.5474 84.3748 25.508C84.1349 25.2405 83.8692 24.9955 83.5955 24.7262C83.4987 24.8178 83.4196 24.8887 83.3449 24.965C82.5248 25.797 81.7038 26.6299 80.8837 27.4637C80.801 27.5471 80.7148 27.6288 80.6464 27.7248C80.6117 27.7742 80.5833 27.864 80.6038 27.9142C80.7255 28.2041 80.8623 28.4886 81.0098 28.8082C81.7304 28.3711 82.4644 28.1332 83.2747 28.3361C84.0398 28.5281 84.5907 29.2004 84.6955 30.0737C84.6058 30.08 84.5347 30.088 84.4645 30.088C82.2094 30.0889 79.9542 30.0907 77.6991 30.0889C77.2486 30.0889 76.9811 29.8888 76.8327 29.4508C76.7288 29.1411 76.6364 28.8279 76.5279 28.5201C76.1663 27.4996 75.387 26.6245 73.8943 26.6936C73.131 26.7286 72.5108 27.0095 72.0487 27.6145C71.5085 28.3217 71.3521 29.151 71.3397 30.0234C71.3361 30.2361 71.4205 30.2891 71.6098 30.2864C72.142 30.2801 72.6743 30.2819 73.2065 30.2855C73.737 30.2882 73.7512 30.2074 73.6863 30.8087C73.5993 31.6093 72.8458 32.4746 71.8088 32.392C71.0127 32.3283 70.2636 31.5106 70.245 30.6427C70.2352 30.1886 70.2201 29.7344 70.1872 29.2812C70.1819 29.2058 70.0806 29.081 70.0166 29.0765C69.7207 29.055 69.4222 29.0586 69.1254 29.0747C69.0685 29.0783 68.9681 29.1824 68.9699 29.2363C68.9974 29.9346 68.9628 30.6472 69.0952 31.3257C69.3218 32.4934 70.3898 33.7158 71.9741 33.7203C73.4873 33.7248 74.5687 32.6047 74.8237 31.4352C74.9774 30.728 74.9259 29.974 74.9472 29.2408C74.949 29.1842 74.7979 29.0747 74.7153 29.072C74.2559 29.055 73.7956 29.0631 73.3354 29.0631H72.8831C73.0537 28.4725 73.4527 28.0668 73.8898 28.0031C74.4692 27.9178 74.9481 28.1332 75.2395 28.6924C75.4306 29.0568 75.5727 29.458 75.6714 29.8583C75.8802 30.7028 76.4897 31.2719 77.2983 31.2737C80.1222 31.2799 82.946 31.2746 85.7689 31.2799C85.9857 31.2808 86.0613 31.1992 86.047 30.9918ZM100.89 27.2698C100.889 26.2493 100.879 25.2297 100.883 24.2101C100.884 23.9884 100.818 23.8933 100.589 23.9113C100.383 23.9283 100.174 23.9149 99.9663 23.9149C99.7234 23.9154 99.6031 24.0408 99.6055 24.2909C99.6233 25.9558 99.6437 27.6216 99.657 29.2865C99.6615 29.8125 99.3905 30.0889 98.8822 30.0889C96.7435 30.0916 94.6056 30.088 92.4677 30.0934C92.2776 30.0934 92.2189 30.0252 92.1647 29.8403C92.0146 29.3215 91.8866 28.7803 91.6343 28.3109C91.2087 27.5238 90.5023 27.1154 89.5986 27.0822C89.4369 27.0768 89.3685 27.1325 89.3747 27.2994C89.3818 27.5364 89.3622 27.7742 89.3836 28.0094C89.3916 28.0892 89.4733 28.2068 89.5453 28.2293C90.2543 28.4509 90.6311 28.9724 90.8328 29.6536C90.871 29.7838 90.8755 29.9247 90.9003 30.0898H90.5494C89.7372 30.0898 88.9251 30.0871 88.1129 30.0934C88.0134 30.0943 87.8615 30.1123 87.8242 30.176C87.6287 30.509 87.4625 30.859 87.2493 31.2764H87.6535C91.1633 31.2782 94.6722 31.2799 98.182 31.2808C98.5881 31.2808 98.9942 31.288 99.3994 31.2737C100.45 31.236 100.922 30.5942 100.897 29.7281C100.873 28.9096 100.893 28.0892 100.89 27.2698ZM89.9256 25.0206C89.2734 25.0197 89.3836 24.9614 89.3765 25.6561C89.3711 26.252 89.3756 26.252 89.9576 26.252C90.5396 26.252 90.5476 26.252 90.5476 25.665C90.5342 24.9416 90.6604 25.0215 89.9256 25.0206ZM103.547 29.9175C103.542 28.9895 103.545 28.0623 103.545 27.1343H103.532C103.532 26.1793 103.533 25.2252 103.532 24.2703C103.531 23.9158 103.529 23.9157 103.167 23.9149C102.96 23.9149 102.752 23.9283 102.546 23.9113C102.316 23.8933 102.252 23.9884 102.257 24.2092C102.281 25.1624 102.301 26.1165 102.308 27.0697C102.316 28.3702 102.318 29.6707 102.309 30.9712C102.308 31.2126 102.386 31.297 102.621 31.2799C102.854 31.2638 103.09 31.2665 103.323 31.2791C103.528 31.2898 103.597 31.1974 103.587 31.0044C103.569 30.6427 103.549 30.2801 103.547 29.9175ZM103.584 8.87501C103.584 8.77449 103.557 8.67307 103.538 8.551C102.794 8.78077 102.091 9.00605 101.383 9.21069C101.184 9.26813 101.112 9.35339 101.113 9.567C101.125 10.6045 101.125 11.643 101.117 12.6814C101.108 13.7818 101.104 14.883 101.064 15.9834C101.03 16.9043 100.445 17.6115 99.5655 17.8269C99.2448 17.9059 98.9089 17.9427 98.5783 17.9508C97.8755 17.9696 97.1709 17.9463 96.4671 17.9625C96.2228 17.9678 96.1632 17.8844 96.165 17.6501C96.1757 16.4573 96.1703 15.2636 96.1695 14.0708C96.1695 12.7317 96.1703 11.3926 96.1695 10.0544C96.1695 9.68996 96.1552 9.68009 95.8291 9.77792C95.2169 9.95922 94.6065 10.1495 93.9907 10.3191C93.7704 10.3793 93.6957 10.4789 93.6966 10.7149C93.7055 13.0288 93.6975 15.3417 93.7082 17.6555C93.709 17.9158 93.6264 17.9759 93.3847 17.9741C91.9684 17.9643 90.552 17.9643 89.1357 17.9741C88.8913 17.9759 88.8131 17.9113 88.814 17.6537C88.8247 15.5041 88.8202 13.3546 88.8202 11.205V10.8325C88.6923 10.8585 88.6043 10.872 88.519 10.8962C87.905 11.0713 87.2937 11.2606 86.6753 11.4195C86.414 11.4868 86.3456 11.6196 86.3465 11.879C86.3563 13.7917 86.3465 15.7052 86.358 17.6178C86.3598 17.9005 86.2745 17.9625 86.0062 17.9625C79.3109 17.9553 72.6165 17.9571 65.9213 17.9544C65.7151 17.9544 65.5072 17.9328 65.3046 17.8942C64.887 17.8162 64.592 17.467 64.5627 17.0362C64.5529 16.8908 64.5547 16.7454 64.5547 16.5991C64.5547 11.3163 64.5547 6.03434 64.5529 0.751504C64.5529 0.613285 64.5378 0.475066 64.528 0.300049C63.771 0.539688 63.0717 0.77125 62.3653 0.979476C62.1129 1.05397 62.0374 1.18411 62.0392 1.44529C62.0507 3.0393 62.0401 4.63241 62.0454 6.22641C62.0569 9.92332 62.056 13.6202 62.0996 17.3162C62.1102 18.2156 62.5181 18.9812 63.2565 19.5322C63.9256 20.0313 64.6995 20.1722 65.5036 20.1722C76.5288 20.1758 87.5549 20.1758 98.581 20.1704C98.9924 20.1704 99.4074 20.1336 99.8161 20.0752C101.997 19.7656 103.548 18.2479 103.58 15.7878C103.61 13.4838 103.587 11.179 103.584 8.87501ZM104.147 4.28327C104.435 4.13428 104.53 3.82284 104.453 3.46562C104.38 3.12546 104.097 2.98814 103.791 2.95314C103.499 2.91993 103.199 2.94057 102.903 2.95044C102.756 2.95583 102.69 3.04289 102.691 3.20354C102.698 3.93054 102.697 4.65754 102.691 5.38453C102.691 5.55596 102.764 5.59904 102.921 5.59994C103.077 5.60084 103.158 5.55327 103.153 5.38453C103.148 5.20323 103.153 5.02103 103.154 4.83973C103.154 4.49688 103.257 4.40174 103.572 4.5265C103.711 4.58125 103.827 4.73742 103.91 4.87474C103.981 4.99411 103.985 5.15207 104.025 5.29119C104.122 5.63135 104.188 5.66187 104.581 5.53442C104.441 5.13053 104.302 4.72844 104.147 4.28327ZM103.783 4.07684C103.631 4.13428 103.452 4.12082 103.285 4.13697C103.26 4.13877 103.213 4.12441 103.212 4.11543C103.193 3.87669 103.157 3.63615 103.177 3.4001C103.181 3.34087 103.364 3.29689 103.504 3.22598C103.672 3.32112 103.86 3.37856 103.972 3.50511C104.135 3.6918 104.038 3.9799 103.783 4.07684ZM104.147 4.28327C104.435 4.13428 104.53 3.82284 104.453 3.46562C104.38 3.12546 104.097 2.98814 103.791 2.95314C103.499 2.91993 103.199 2.94057 102.903 2.95044C102.756 2.95583 102.69 3.04289 102.691 3.20354C102.698 3.93054 102.697 4.65754 102.691 5.38453C102.691 5.55596 102.764 5.59904 102.921 5.59994C103.077 5.60084 103.158 5.55327 103.153 5.38453C103.148 5.20323 103.153 5.02103 103.154 4.83973C103.154 4.49688 103.257 4.40174 103.572 4.5265C103.711 4.58125 103.827 4.73742 103.91 4.87474C103.981 4.99411 103.985 5.15207 104.025 5.29119C104.122 5.63135 104.188 5.66187 104.581 5.53442C104.441 5.13053 104.302 4.72844 104.147 4.28327ZM103.783 4.07684C103.631 4.13428 103.452 4.12082 103.285 4.13697C103.26 4.13877 103.213 4.12441 103.212 4.11543C103.193 3.87669 103.157 3.63615 103.177 3.4001C103.181 3.34087 103.364 3.29689 103.504 3.22598C103.672 3.32112 103.86 3.37856 103.972 3.50511C104.135 3.6918 104.038 3.9799 103.783 4.07684ZM103.595 1.98919C102.286 1.93803 101.115 3.04738 101.119 4.39366C101.121 5.77406 102.163 6.85109 103.511 6.85289C104.874 6.85558 105.925 5.81535 105.952 4.43854C105.977 3.12187 104.894 2.03945 103.595 1.98919ZM103.512 6.43015C102.425 6.42746 101.528 5.50929 101.543 4.39725C101.558 3.2188 102.57 2.37603 103.59 2.41462C104.648 2.45411 105.515 3.33458 105.512 4.43495C105.508 5.55237 104.625 6.43374 103.512 6.43015ZM104.453 3.46562C104.38 3.12546 104.097 2.98814 103.791 2.95314C103.499 2.91993 103.199 2.94057 102.903 2.95044C102.756 2.95583 102.69 3.04289 102.691 3.20354C102.698 3.93054 102.697 4.65754 102.691 5.38453C102.691 5.55596 102.764 5.59904 102.921 5.59994C103.077 5.60084 103.158 5.55327 103.153 5.38453C103.148 5.20323 103.153 5.02103 103.154 4.83973C103.154 4.49688 103.257 4.40174 103.572 4.5265C103.711 4.58125 103.827 4.73742 103.91 4.87474C103.981 4.99411 103.985 5.15207 104.025 5.29119C104.122 5.63135 104.188 5.66187 104.581 5.53442C104.441 5.13053 104.302 4.72844 104.147 4.28327C104.435 4.13428 104.53 3.82284 104.453 3.46562ZM103.783 4.07684C103.631 4.13428 103.452 4.12082 103.285 4.13697C103.26 4.13877 103.213 4.12441 103.212 4.11543C103.193 3.87669 103.157 3.63615 103.177 3.4001C103.181 3.34087 103.364 3.29689 103.504 3.22598C103.672 3.32112 103.86 3.37856 103.972 3.50511C104.135 3.6918 104.038 3.9799 103.783 4.07684Z" fill="#008A96"/>
<path id="Vector_2" d="M59.965 0.68983V0.358643C59.8299 0.393646 59.7357 0.416084 59.6433 0.443908C59.0569 0.618925 58.4749 0.810098 57.8831 0.963575C57.589 1.03986 57.4886 1.16911 57.4895 1.48593C57.5001 5.72046 57.4975 9.95588 57.4966 14.1904C57.4966 14.728 57.4993 15.2656 57.485 15.8024C57.4584 16.8085 56.8826 17.5911 55.9718 17.8236C55.6351 17.9098 55.2788 17.9492 54.9304 17.951C52.8734 17.9627 50.8164 17.9618 48.7594 17.9546C47.8949 17.9519 47.0303 17.9313 46.1657 17.9044C45.1252 17.8721 44.2962 17.2985 43.971 16.3032C43.8022 15.7853 43.7364 15.2262 43.6751 14.6796C43.5925 13.9409 43.6058 13.1897 43.4912 12.4582C43.3312 11.4305 42.903 10.5115 42.1432 9.78087C41.2716 8.94348 40.1946 8.63024 39.0271 8.61947C36.9434 8.59972 34.8589 8.59524 32.7752 8.62396C32.0608 8.63383 31.3366 8.70653 30.6356 8.84744C29.0717 9.15978 27.9974 10.0744 27.5887 11.663C27.4412 12.2374 27.355 12.8423 27.3426 13.4347C27.3097 15.0736 27.331 16.7134 27.331 18.3531C27.3328 24.0084 27.3337 29.6638 27.3346 35.3191C27.3346 35.5686 27.4605 35.6939 27.7122 35.6951C28.2987 35.696 28.8851 35.6853 29.4715 35.6996C29.7212 35.7059 29.8154 35.6395 29.8145 35.3657C29.8065 28.9179 29.8048 22.4701 29.8083 16.0223C29.8092 14.9856 29.8056 13.9472 29.8723 12.9141C29.9398 11.8595 30.4889 11.2779 31.5134 11.0643C32.5077 10.857 33.5171 10.892 34.5745 10.9028C34.1738 11.7231 33.9978 12.5479 33.9232 13.4069C33.829 14.4983 33.893 15.5699 34.2209 16.6128C34.6767 18.0623 35.5582 19.1178 37.0527 19.5504C37.8018 19.7676 38.5668 19.8206 39.3478 19.7551C40.5865 19.6501 41.6528 19.2121 42.4693 18.2356C42.5173 18.1781 42.5715 18.1252 42.6346 18.057C42.6933 18.1548 42.735 18.2248 42.7759 18.2948C43.285 19.1609 44.027 19.7281 44.9911 19.9579C45.5029 20.0809 46.0378 20.1616 46.5629 20.1661C49.3503 20.1859 52.1386 20.1796 54.926 20.1706C55.3649 20.1706 55.8074 20.1347 56.2419 20.0737C58.4127 19.7694 59.9614 17.978 59.9632 15.7719C59.9677 10.7448 59.965 5.71777 59.965 0.68983ZM40.933 16.1057C40.4905 17.347 39.4722 17.6979 38.3704 17.5516C37.2215 17.3991 36.6999 16.6057 36.4867 15.5547C36.2797 14.536 36.2983 13.5119 36.5853 12.5102C36.8386 11.6262 37.3673 10.9818 38.3198 10.8471C40.0382 10.6048 40.8104 11.5499 41.0734 12.8513C41.1649 13.3019 41.1827 13.7677 41.2342 14.2263C41.2103 14.8698 41.1498 15.4981 40.933 16.1057Z" fill="#008A96"/>
<path id="Vector_3" d="M103.58 15.7878C103.548 18.2479 101.997 19.7656 99.816 20.0752C99.4073 20.1336 98.9923 20.1704 98.5809 20.1704C87.5549 20.1758 76.5288 20.1758 65.5036 20.1722C64.6994 20.1722 63.9255 20.0313 63.2564 19.5322C62.518 18.9812 62.1102 18.2156 62.0995 17.3162C62.056 13.6202 62.0569 9.92332 62.0453 6.22641C62.04 4.63241 62.0506 3.0393 62.0391 1.44529C62.0373 1.18411 62.1128 1.05397 62.3652 0.979476C63.0716 0.77125 63.7709 0.539688 64.5279 0.300049C64.5377 0.475066 64.5528 0.613285 64.5528 0.751504C64.5546 6.03434 64.5537 11.3163 64.5546 16.5991C64.5546 16.7454 64.5528 16.8908 64.5626 17.0362C64.5919 17.467 64.8869 17.8162 65.3045 17.8942C65.5071 17.9328 65.715 17.9544 65.9212 17.9544C72.6165 17.9571 79.3108 17.9553 86.0061 17.9625C86.2744 17.9625 86.3597 17.9005 86.358 17.6178C86.3455 15.7052 86.3562 13.7917 86.3464 11.879C86.3464 11.6196 86.414 11.4868 86.6752 11.4195C87.2936 11.2606 87.9049 11.0713 88.5189 10.8962C88.6042 10.872 88.6922 10.8585 88.8202 10.8325V11.205C88.8202 13.3546 88.8246 15.5041 88.8139 17.6537C88.8131 17.9113 88.8912 17.9759 89.1356 17.9741C90.552 17.9643 91.9683 17.9643 93.3847 17.9741C93.6264 17.9759 93.709 17.9158 93.7081 17.6555C93.6974 15.3417 93.7054 13.0288 93.6966 10.7149C93.6957 10.4789 93.7703 10.3793 93.9907 10.3191C94.6064 10.1495 95.2169 9.95922 95.8291 9.77792C96.1552 9.68009 96.1694 9.68997 96.1694 10.0544C96.1703 11.3926 96.1694 12.7317 96.1694 14.0708C96.1703 15.2636 96.1756 16.4573 96.165 17.6501C96.1632 17.8844 96.2227 17.9678 96.4671 17.9625C97.1708 17.9463 97.8754 17.9696 98.5783 17.9508C98.9088 17.9427 99.2447 17.9059 99.5655 17.8269C100.445 17.6115 101.03 16.9043 101.064 15.9834C101.104 14.8831 101.108 13.7818 101.117 12.6814C101.125 11.643 101.125 10.6045 101.113 9.567C101.112 9.35339 101.184 9.26813 101.383 9.21069C102.091 9.00605 102.794 8.78077 103.538 8.551C103.557 8.67307 103.584 8.77449 103.584 8.87501C103.587 11.179 103.61 13.4838 103.58 15.7878Z" fill="#008A96"/>
<path id="Vector_4" d="M66.1946 35.382C66.1955 35.6189 66.1289 35.7033 65.8898 35.6988C65.2856 35.6853 64.6805 35.6835 64.0763 35.6988C63.8195 35.706 63.7609 35.6073 63.7617 35.364C63.7689 32.8599 63.7724 30.3549 63.7626 27.8508C63.76 27.1678 63.648 26.4974 63.4232 25.8476C62.7399 23.8712 60.5461 23.6064 59.2283 24.7176C58.4144 25.4033 58.003 26.2918 58.0039 27.3698C58.0057 29.9923 58.0039 32.6158 58.0039 35.2384C58.0039 35.5423 57.8493 35.6943 57.5401 35.6943C56.9892 35.6943 56.4392 35.6844 55.8891 35.6988C55.6501 35.7051 55.5844 35.6216 55.5853 35.3838C55.5933 32.8707 55.5995 30.3567 55.5844 27.8428C55.5799 27.0619 55.5017 26.2829 55.157 25.5604C54.4657 24.1118 52.8014 23.6136 51.4597 24.4869C50.3765 25.1915 49.7972 26.2182 49.7883 27.5241C49.7714 30.1189 49.783 32.7145 49.783 35.3102C49.783 35.5651 49.6601 35.6931 49.4142 35.6943C48.8544 35.6952 48.2955 35.6952 47.7358 35.6943C47.4864 35.6937 47.3617 35.5705 47.3617 35.3245C47.3617 32.4282 47.3706 29.5319 47.3572 26.6356C47.351 25.4365 47.2959 24.2374 47.2657 23.0374C47.2595 22.813 47.2648 22.5878 47.2648 22.3472H49.4062C49.4453 23.0329 49.4827 23.7016 49.5253 24.4501C50.4681 22.8525 51.8178 22.0187 53.6056 22.0115C55.4449 22.0044 56.6995 22.9261 57.4139 24.5803C57.7569 24.1674 58.0688 23.7025 58.466 23.33C59.9063 21.9801 61.5857 21.6445 63.4161 22.3427C64.7383 22.848 65.4855 23.9287 65.8445 25.2615C66.0338 25.9642 66.1617 26.7056 66.1724 27.4317C66.2106 30.0812 66.1866 32.7316 66.1946 35.382Z" fill="#008A96"/>
<path id="Vector_5" d="M10.2373 33.232C9.38692 34.4795 8.16072 35.1554 6.73103 35.4578C4.6216 35.9048 2.56459 35.6849 0.580448 34.8304C-0.0850799 34.5441 -0.0824143 34.5298 0.116622 33.8512C0.256125 33.3756 0.406291 32.9035 0.559123 32.4035C0.792813 32.5247 0.990072 32.6306 1.19 32.7302C2.53527 33.4034 3.96051 33.7139 5.45506 33.5766C6.52755 33.477 7.4943 33.1036 8.13495 32.1486C8.87689 31.0411 8.83158 29.1105 7.44187 28.0622C6.69549 27.4995 5.85936 27.1243 4.99568 26.8003C3.93386 26.4018 2.91735 25.9198 2.0359 25.1874C0.765268 24.1319 0.169935 22.7677 0.338761 21.118C0.545794 19.1031 1.6947 17.7846 3.51357 17.028C4.7611 16.5093 6.0655 16.4608 7.39034 16.5828C8.30466 16.6672 9.18433 16.8665 10.0187 17.2551C10.3892 17.4274 10.3874 17.4337 10.2613 17.8161C10.0827 18.3573 9.9014 18.8976 9.72102 19.4406C9.22343 19.2485 8.76493 19.0367 8.286 18.894C7.15665 18.5565 6.00686 18.4479 4.85262 18.7665C3.54289 19.1282 2.75386 20.1721 2.79917 21.4887C2.83116 22.4213 3.29321 23.1195 4.03693 23.6464C4.82774 24.2046 5.71897 24.5502 6.60486 24.9101C7.77331 25.3849 8.89644 25.9378 9.79566 26.864C10.622 27.7158 11.0201 28.7407 11.085 29.9255C11.1507 31.1255 10.9161 32.2366 10.2373 33.232Z" fill="#008A96"/>
<path id="Vector_6" d="M44.2605 26.1648C43.9744 24.9029 43.444 23.7711 42.4514 22.9158C41.1586 21.8019 39.6223 21.5587 38.0078 21.8091C35.8104 22.1493 34.3238 23.4516 33.4557 25.4854C32.8595 26.8828 32.7022 28.3503 32.8453 29.8617C32.9448 30.91 33.2096 31.9018 33.7543 32.8011C35.0702 34.9776 37.1228 35.6875 39.5085 35.6831C40.0817 35.6822 40.6646 35.6418 41.2243 35.5296C41.9974 35.3743 42.7544 35.1392 43.5142 34.9238C43.5906 34.9022 43.7016 34.7685 43.6892 34.7101C43.5746 34.1627 43.4351 33.6196 43.2938 33.0345C43.1516 33.0847 43.0512 33.1179 42.9517 33.1565C41.5878 33.6879 40.1705 33.844 38.7337 33.6394C36.3631 33.3019 35.3252 31.5778 35.1724 29.5583C35.1449 29.2047 35.1591 29.2029 35.5198 29.2029C38.3703 29.2029 41.2208 29.1993 44.0704 29.2092C44.3378 29.2101 44.4009 29.1069 44.4294 28.8673C44.536 27.9545 44.4631 27.0551 44.2605 26.1648ZM41.7006 27.3684C41.0209 27.3693 40.3411 27.3693 39.6623 27.3693H38.6431C38.1162 27.3684 37.5884 27.3684 37.0606 27.3684C36.5328 27.3684 36.0059 27.3684 35.4781 27.3702C35.3092 27.3711 35.1848 27.3468 35.2257 27.1341C35.4505 25.9584 35.9063 24.9074 36.8864 24.1687C38.1633 23.2075 40.0852 23.3681 41.1337 24.5125C41.6393 25.0653 41.8765 25.7475 42.0018 26.4753C42.0312 26.645 42.0507 26.8173 42.056 26.9887C42.0685 27.3675 42.064 27.3684 41.7006 27.3684Z" fill="#008A96"/>
<path id="Vector_7" d="M23.5915 33.0724C23.5693 31.1606 23.6013 29.2489 23.572 27.3372C23.5604 26.6344 23.5035 25.9182 23.3525 25.2343C22.9615 23.4661 21.9086 22.3012 20.1208 21.8865C19.0421 21.6361 17.9572 21.6738 16.8776 21.865C16.0041 22.0202 15.1751 22.3137 14.3976 22.7553C14.2146 22.8594 14.1648 22.9644 14.2421 23.1673C14.395 23.5649 14.5238 23.9715 14.6651 24.3735C14.6873 24.4364 14.7273 24.492 14.7637 24.5593C14.8268 24.527 14.8677 24.5091 14.9059 24.4866C16.1303 23.7884 17.432 23.4428 18.8422 23.6295C19.8071 23.7578 20.5535 24.2308 20.8752 25.1894C21.0254 25.6355 21.0378 26.1291 21.1089 26.6021C21.1338 26.7681 21.0502 26.8184 20.8903 26.8256C20.3785 26.8489 19.8676 26.8821 19.3566 26.9207C18.2291 27.006 17.1326 27.2313 16.0877 27.68C14.3514 28.425 12.9866 29.8987 13.262 32.3454C13.3962 33.5373 13.9836 34.4671 15.0027 35.0909C15.8131 35.5863 16.707 35.7183 17.6471 35.6581C18.7844 35.5863 19.7849 35.1941 20.6468 34.4456C20.8832 34.24 21.1053 34.0193 21.3515 33.7886C21.3959 34.1988 21.4536 34.6161 21.4838 35.0362C21.5007 35.2749 21.5576 35.4077 21.833 35.3835C22.1112 35.3593 22.392 35.3781 22.6718 35.3781H23.7452C23.6892 34.573 23.6004 33.8236 23.5915 33.0724ZM21.1098 31.2773C20.8512 32.6003 19.7814 33.5669 18.4548 33.7608C17.6808 33.8739 16.9602 33.7913 16.3542 33.2465C15.4123 32.4001 15.4035 30.4112 16.7114 29.5209C17.4178 29.0398 18.2131 28.8199 19.0394 28.7194C19.6534 28.644 20.2772 28.6449 20.8956 28.5991C21.1195 28.582 21.1755 28.6718 21.1675 28.8809C21.1542 29.2354 21.164 29.5909 21.164 29.9463C21.1711 29.9463 21.1782 29.9463 21.1853 29.9472C21.1631 30.3915 21.1942 30.8456 21.1098 31.2773Z" fill="#008A96"/>
<path id="Vector_8" d="M85.7688 31.2793C82.9458 31.2739 80.122 31.2793 77.2982 31.273C76.4896 31.2712 75.88 30.7022 75.6712 29.8576C75.5726 29.4573 75.4304 29.0561 75.2394 28.6918C74.9479 28.1326 74.469 27.9172 73.8897 28.0025C73.4525 28.0662 73.0535 28.4719 72.8829 29.0624H73.3352C73.7955 29.0624 74.2558 29.0544 74.7151 29.0714C74.7978 29.0741 74.9488 29.1836 74.9471 29.2401C74.9257 29.9734 74.9773 30.7273 74.8236 31.4346C74.5685 32.6041 73.4872 33.7242 71.974 33.7197C70.3897 33.7152 69.3216 32.4928 69.095 31.3251C68.9626 30.6466 68.9973 29.9339 68.9697 29.2357C68.968 29.1818 69.0684 29.0777 69.1252 29.0741C69.422 29.0579 69.7206 29.0544 70.0165 29.0759C70.0804 29.0804 70.1817 29.2051 70.1871 29.2805C70.2199 29.7338 70.2351 30.1879 70.2448 30.6421C70.2635 31.51 71.0125 32.3276 71.8087 32.3914C72.8456 32.4739 73.5991 31.6087 73.6862 30.8081C73.7511 30.2068 73.7368 30.2876 73.2064 30.2849C72.6741 30.2813 72.1419 30.2795 71.6096 30.2858C71.4204 30.2885 71.336 30.2355 71.3395 30.0228C71.352 29.1504 71.5083 28.3211 72.0486 27.6138C72.5106 27.0089 73.1309 26.728 73.8941 26.693C75.3869 26.6239 76.1662 27.4989 76.5278 28.5194C76.6362 28.8273 76.7286 29.1405 76.8326 29.4502C76.981 29.8882 77.2484 30.0883 77.6989 30.0883C79.9541 30.0901 82.2092 30.0883 84.4644 30.0874C84.5346 30.0874 84.6057 30.0793 84.6954 30.073C84.5905 29.1998 84.0396 28.5275 83.2746 28.3354C82.4642 28.1326 81.7303 28.3704 81.0097 28.8075C80.8622 28.488 80.7253 28.2035 80.6036 27.9136C80.5832 27.8633 80.6116 27.7736 80.6463 27.7242C80.7147 27.6282 80.8009 27.5465 80.8835 27.463C81.7036 26.6292 82.5247 25.7963 83.3448 24.9643C83.4194 24.888 83.4985 24.8171 83.5954 24.7256C83.869 24.9948 84.1347 25.2399 84.3746 25.5073C84.4102 25.5468 84.3577 25.7209 84.2964 25.7847C83.9384 26.1562 83.5652 26.5135 83.1982 26.877C83.1493 26.9254 83.1084 26.9829 83.0507 27.0511C83.3004 27.0933 83.5305 27.1184 83.7535 27.1722C84.6581 27.3894 85.241 27.9827 85.6124 28.8156C85.9216 29.5076 85.9954 30.2463 86.0469 30.9912C86.0611 31.1985 85.9856 31.2802 85.7688 31.2793Z" fill="#008A96"/>
<path id="Vector_9" d="M100.897 29.7288C100.922 30.5949 100.449 31.2366 99.3991 31.2743C98.994 31.2887 98.5879 31.2815 98.1818 31.2815C94.672 31.2806 91.1631 31.2788 87.6533 31.277H87.249C87.4623 30.8597 87.6284 30.5096 87.8239 30.1766C87.8612 30.1129 88.0132 30.095 88.1127 30.0941C88.9248 30.0878 89.737 30.0905 90.5491 30.0905H90.9001C90.8752 29.9253 90.8708 29.7844 90.8326 29.6543C90.6309 28.9731 90.2541 28.4516 89.5451 28.2299C89.4731 28.2075 89.3913 28.0899 89.3833 28.01C89.362 27.7749 89.3816 27.537 89.3745 27.3001C89.3682 27.1331 89.4366 27.0775 89.5984 27.0829C90.502 27.1161 91.2084 27.5245 91.634 28.3116C91.8864 28.781 92.0143 29.3222 92.1645 29.841C92.2187 30.0259 92.2774 30.0941 92.4675 30.0941C94.6054 30.0887 96.7432 30.0923 98.882 30.0896C99.3902 30.0896 99.6613 29.8132 99.6568 29.2872C99.6435 27.6223 99.623 25.9565 99.6053 24.2916C99.6023 24.0415 99.7226 23.9161 99.966 23.9155C100.174 23.9155 100.383 23.929 100.589 23.9119C100.818 23.894 100.884 23.9891 100.883 24.2108C100.879 25.2304 100.888 26.25 100.89 27.2705C100.893 28.0899 100.873 28.9102 100.897 29.7288Z" fill="#008A96"/>
<path id="Vector_10" d="M13.3442 13.3555C13.3468 13.5897 13.2749 13.6813 13.0341 13.675C12.1597 13.6535 12.3028 13.7881 12.2939 12.9489C12.285 12.0478 12.2939 11.1458 12.2824 10.2447C12.2779 9.86681 12.0922 9.62358 11.7928 9.59127C11.6062 9.57152 11.4098 9.56703 11.2276 9.60563C10.9566 9.66397 10.6456 9.70256 10.443 9.86591C10.2165 10.0472 10.3755 10.3847 10.3702 10.6503C10.3506 11.5515 10.3569 12.4535 10.3666 13.3546C10.3684 13.5879 10.2982 13.6759 10.0574 13.6759C9.35634 13.6768 9.35634 13.6858 9.35634 12.9758C9.35634 12.2659 9.36078 11.5183 9.35368 10.7895C9.3519 10.5543 9.33057 10.3174 9.2977 10.084C9.25327 9.76539 9.04357 9.56434 8.72369 9.59037C8.36916 9.61909 8.01907 9.70615 7.66809 9.77436C7.46016 9.81565 7.38819 9.9404 7.39086 10.1639C7.4033 11.2293 7.38997 12.2946 7.40152 13.3609C7.40418 13.5987 7.33221 13.6759 7.09497 13.6759C6.38057 13.6768 6.38057 13.6858 6.38057 12.9579C6.38057 11.6735 6.38412 10.3892 6.37701 9.10481C6.37524 8.88581 6.41078 8.76554 6.66668 8.76913C6.88793 8.77272 7.11096 8.72156 7.36331 8.69015C7.38197 8.8176 7.39797 8.92889 7.41751 9.06711C8.33095 8.70989 9.2506 8.31947 10.0983 9.11288C10.5674 8.97197 11.0153 8.79785 11.4782 8.71169C11.7874 8.65425 12.1277 8.68028 12.4387 8.7431C12.9292 8.84363 13.2455 9.25559 13.2935 9.78064C13.3202 10.0696 13.3362 10.3604 13.338 10.6503C13.3442 11.5524 13.3344 12.4544 13.3442 13.3555Z" fill="#008A96"/>
<path id="Vector_11" d="M4.27834 13.5172C2.93485 14.0144 1.64644 13.8609 0.433562 13.0873C0.396243 13.063 0.361589 13.0334 0.328712 13.002C0.310053 12.9841 0.297613 12.9589 0.265625 12.915C0.423788 12.6744 0.584616 12.4285 0.706348 12.2427C1.24837 12.4375 1.73174 12.6583 2.23999 12.7803C2.71981 12.8952 3.22363 12.8835 3.70167 12.6969C4.07308 12.5506 4.28012 12.2714 4.3201 11.8756C4.36275 11.4574 4.22325 11.1037 3.84206 10.9171C3.36579 10.6846 2.86554 10.5015 2.37772 10.2915C2.07206 10.1595 1.76018 10.0366 1.46962 9.87503C0.807644 9.50615 0.492207 8.92366 0.541077 8.16166C0.587282 7.42569 0.984466 6.91769 1.64289 6.64125C2.70293 6.19607 3.75498 6.31814 4.78304 6.77677C4.96875 6.86024 5.14024 6.97692 5.35349 7.09719C5.17578 7.37722 5.0194 7.62494 4.88167 7.84214C4.43473 7.67699 4.03221 7.49659 3.61192 7.38171C3.12944 7.24887 2.63185 7.24438 2.16091 7.45889C1.52382 7.74879 1.43674 8.55118 2.03118 8.91827C2.42481 9.1615 2.8842 9.29613 3.30715 9.49628C3.80918 9.73322 4.34765 9.9253 4.79193 10.2475C5.81643 10.9916 5.6947 12.993 4.27834 13.5172Z" fill="#008A96"/>
<path id="Vector_12" d="M18.1633 10.1947C18.1526 9.40219 17.7732 8.88073 17.1113 8.73892C16.125 8.52621 15.2213 8.76854 14.3887 9.31064C14.3336 9.34654 14.2874 9.49015 14.3141 9.5449C14.4136 9.74505 14.5451 9.92814 14.6739 10.1328C14.8321 10.0457 14.9636 9.97122 15.0969 9.90032C15.4932 9.6903 15.9073 9.57182 16.3613 9.56823C16.9291 9.56285 17.137 9.88506 17.145 10.4415C17.145 10.5088 17.0411 10.6237 16.9709 10.6372C16.6892 10.691 16.3995 10.7009 16.117 10.7485C15.5261 10.849 14.9583 11.0124 14.4953 11.4306C14.0813 11.8049 13.9942 12.2886 14.0902 12.8002C14.1799 13.2777 14.506 13.5954 14.9689 13.7004C15.2773 13.7713 15.6167 13.7983 15.9259 13.7453C16.3515 13.6726 16.7612 13.5057 17.185 13.3773C17.1521 13.6843 17.3752 13.6888 17.6177 13.6717C17.7164 13.6654 17.8159 13.6654 17.9145 13.6717C18.0975 13.6816 18.1713 13.6071 18.1704 13.4159C18.1642 12.3425 18.1775 11.2681 18.1633 10.1947ZM16.6412 12.7194C16.3382 12.8155 16.0121 12.846 15.694 12.881C15.4514 12.9079 15.2391 12.8209 15.1609 12.5642C15.0818 12.3057 15.1395 12.0382 15.3741 11.918C15.7207 11.7411 16.1019 11.6325 16.4688 11.497C16.5008 11.4853 16.5399 11.4925 16.5755 11.4871C16.9611 11.4273 17.1539 11.5969 17.1539 11.996C17.153 12.5346 17.1601 12.5552 16.6412 12.7194Z" fill="#008A96"/>
<path id="Vector_13" d="M25.7509 13.6809C25.2924 13.82 24.8294 13.8524 24.3763 13.6728C23.788 13.4395 23.5641 12.9468 23.549 12.3544C23.5286 11.5448 23.5348 10.7343 23.5464 9.92478C23.549 9.69771 23.4806 9.60257 23.2558 9.63578C23.2211 9.64116 23.1838 9.63578 23.1483 9.63578C22.5405 9.63578 22.5014 9.59718 22.5885 8.99135C22.5992 8.91686 22.7058 8.81185 22.7813 8.79928C22.9564 8.77056 23.1403 8.78223 23.3207 8.78941C23.4797 8.79569 23.5517 8.73825 23.5437 8.56862C23.5339 8.35052 23.5312 8.13152 23.5481 7.91432C23.5535 7.84073 23.6139 7.72225 23.6681 7.71058C23.9453 7.64866 24.2288 7.61545 24.5575 7.56519C24.5575 7.89996 24.57 8.19704 24.554 8.49323C24.5415 8.71581 24.61 8.80108 24.8401 8.793C25.2355 8.77864 25.6327 8.7921 26.029 8.79659C26.0539 8.79659 26.0778 8.81544 26.1392 8.84147C26.1143 9.06495 26.1001 9.29831 26.053 9.52448C26.0423 9.57385 25.9152 9.6277 25.8406 9.62949C25.4896 9.64116 25.1378 9.64296 24.7868 9.63309C24.6073 9.6277 24.5531 9.69591 24.5549 9.87183C24.562 10.5997 24.5566 11.3276 24.5575 12.0555C24.5575 12.7735 24.9067 13.0428 25.598 12.8597C25.718 12.8274 25.8353 12.7825 25.981 12.734C26.0263 12.839 26.0592 12.9117 26.0894 12.9862C26.2322 13.3363 26.1193 13.5675 25.7509 13.68V13.6809Z" fill="#008A96"/>
<path id="Vector_14" d="M103.588 31.0051C103.598 31.198 103.53 31.2905 103.324 31.2797C103.091 31.2671 102.855 31.2645 102.622 31.2806C102.387 31.2977 102.31 31.2133 102.311 30.9719C102.319 29.6713 102.318 28.3708 102.309 27.0703C102.303 26.1171 102.282 25.1631 102.258 24.2099C102.253 23.9891 102.317 23.894 102.547 23.9119C102.753 23.929 102.961 23.9155 103.168 23.9155C103.531 23.9164 103.532 23.9164 103.533 24.2709C103.534 25.2259 103.533 26.18 103.533 27.1349H103.547C103.547 28.063 103.543 28.9901 103.548 29.9182C103.55 30.2808 103.571 30.6434 103.588 31.0051Z" fill="#008A96"/>
<path id="Vector_15" d="M22.3304 8.88354C22.294 9.186 22.2353 9.48488 22.1856 9.77209C21.8692 9.74067 21.6204 9.69311 21.3708 9.6958C20.7701 9.70118 20.3329 10.1625 20.3329 10.7639C20.3329 11.6291 20.3258 12.4943 20.3374 13.3595C20.3409 13.5982 20.2636 13.6754 20.0281 13.6754C19.3191 13.6763 19.3191 13.6844 19.3191 12.9825C19.3191 11.6901 19.3226 10.3968 19.3155 9.10343C19.3137 8.89251 19.3351 8.74352 19.5936 8.76596C19.6452 8.76955 19.6985 8.74173 19.7518 8.73455C20.1185 8.68489 20.3163 8.8252 20.3454 9.15549C20.659 9.00829 20.9718 8.80456 21.3148 8.7166C21.5893 8.64659 21.9003 8.70942 22.1944 8.73186C22.246 8.73545 22.3366 8.83687 22.3304 8.88354Z" fill="#008A96"/>
<path id="Vector_16" d="M103.595 1.98901C102.286 1.93785 101.115 3.04719 101.118 4.39348C101.121 5.77387 102.162 6.8509 103.51 6.8527C104.873 6.85539 105.924 5.81516 105.951 4.43835C105.977 3.12168 104.894 2.03927 103.595 1.98901ZM103.512 6.42997C102.424 6.42727 101.528 5.5091 101.542 4.39707C101.557 3.21862 102.569 2.37584 103.589 2.41443C104.648 2.45392 105.515 3.3344 105.511 4.43476C105.508 5.55218 104.624 6.43356 103.512 6.42997Z" fill="#008A96"/>
<path id="Vector_17" d="M90.5481 25.6654C90.5481 26.0568 90.3515 26.2524 89.9581 26.2524C89.3761 26.2524 89.3717 26.2524 89.377 25.6565C89.3841 24.9618 89.274 25.0201 89.9262 25.021C90.661 25.0219 90.5348 24.942 90.5481 25.6654Z" fill="#008A96"/>
<path id="Vector_18" d="M72.9295 35.6947C72.2533 35.6938 72.3351 35.7719 72.3315 35.0781C72.328 34.4633 72.3306 34.4624 72.9224 34.4624C73.5142 34.4624 73.4982 34.4624 73.4982 35.0566V35.1113C73.4849 35.7504 73.6075 35.6956 72.9295 35.6947Z" fill="#008A96"/>
<path id="Vector_19" d="M71.8759 35.0861C71.8759 35.6955 71.8759 35.6973 71.2788 35.6955C70.6399 35.6928 70.7554 35.7377 70.7501 35.1561C70.743 34.4623 70.7483 34.4605 71.4396 34.4632C71.939 34.4659 71.8679 34.4094 71.875 34.8949C71.8768 34.9586 71.8759 35.0224 71.8759 35.0861Z" fill="#008A96"/>
<path id="Vector_20" d="M104.147 4.28333C104.435 4.13435 104.53 3.8229 104.453 3.46569C104.38 3.12553 104.097 2.98821 103.791 2.9532C103.499 2.91999 103.199 2.94064 102.903 2.95051C102.756 2.95589 102.69 3.04295 102.691 3.20361C102.698 3.93061 102.697 4.6576 102.691 5.3846C102.691 5.55603 102.764 5.59911 102.921 5.60001C103.077 5.6009 103.158 5.55333 103.153 5.3846C103.148 5.2033 103.153 5.0211 103.153 4.8398C103.154 4.49695 103.257 4.40181 103.572 4.52656C103.711 4.58131 103.827 4.73748 103.91 4.8748C103.981 4.99418 103.985 5.15214 104.025 5.29126C104.122 5.63142 104.188 5.66193 104.581 5.53449C104.441 5.1306 104.302 4.72851 104.147 4.28333ZM103.783 4.0769C103.631 4.13435 103.452 4.12088 103.285 4.13704C103.26 4.13883 103.213 4.12447 103.212 4.1155C103.193 3.87676 103.157 3.63622 103.177 3.40017C103.181 3.34093 103.364 3.29695 103.504 3.22605C103.672 3.32119 103.86 3.37863 103.972 3.50518C104.135 3.69187 104.038 3.97997 103.783 4.0769Z" fill="#008A96"/>
</g>
</svg>
